<svg width="20" height="20" viewBox="0 0 20 20" fill="none" xmlns="http://www.w3.org/2000/svg">
<path d="M9.99967 10.0001C12.3009 10.0001 14.1663 8.1346 14.1663 5.83341C14.1663 3.53223 12.3009 1.66675 9.99967 1.66675C7.69849 1.66675 5.83301 3.53223 5.83301 5.83341C5.83301 8.1346 7.69849 10.0001 9.99967 10.0001Z" stroke="#4C5BD4" stroke-width="1.5" stroke-linecap="round" stroke-linejoin="round"/>
<path d="M2.8418 18.3333C2.8418 15.1083 6.05013 12.5 10.0001 12.5C10.8001 12.5 11.5751 12.6083 12.3001 12.8083" stroke="#4C5BD4" stroke-width="1.5" stroke-linecap="round" stroke-linejoin="round"/>
<path d="M18.3337 15.0001C18.3337 15.2667 18.3003 15.5251 18.2337 15.7751C18.1587 16.1084 18.0253 16.4334 17.8503 16.7167C17.2753 17.6834 16.217 18.3334 15.0003 18.3334C14.142 18.3334 13.367 18.0084 12.7837 17.4751C12.5337 17.2584 12.317 17.0001 12.1503 16.7167C11.842 16.2167 11.667 15.6251 11.667 15.0001C11.667 14.1001 12.0253 13.2751 12.6087 12.6751C13.217 12.0501 14.067 11.6667 15.0003 11.6667C15.9837 11.6667 16.8753 12.0918 17.4753 12.7751C18.0087 13.3668 18.3337 14.1501 18.3337 15.0001Z" stroke="#4C5BD4" stroke-width="1.5" stroke-miterlimit="10" stroke-linecap="round" stroke-linejoin="round"/>
<path d="M16.2421 14.9832H13.7588" stroke="#4C5BD4" stroke-width="1.5" stroke-miterlimit="10" stroke-linecap="round" stroke-linejoin="round"/>
<path d="M15 13.7666V16.2583" stroke="#4C5BD4" stroke-width="1.5" stroke-miterlimit="10" stroke-linecap="round" stroke-linejoin="round"/>
</svg>
