<svg width="52" height="52" viewBox="0 0 52 52" fill="none" xmlns="http://www.w3.org/2000/svg">
<rect width="52" height="52" rx="10" fill="#4C5BD4"/>
<path d="M26 39.1289C34.2838 39.1289 41 32.832 41 25.0644C41 17.2968 34.2838 11 26 11C17.7162 11 11 17.2968 11 25.0644C11 28.6006 12.3931 31.8355 14.6938 34.3068C14.5119 36.3481 13.9119 38.5864 13.2481 40.2661C13.1 40.6398 13.3869 41.0577 13.76 40.9934C17.99 40.25 20.5044 39.1088 21.5975 38.514C23.0336 38.9245 24.5137 39.1312 26 39.1289Z" fill="white"/>
<path d="M19.1709 25.7171C19.1709 26.2438 18.996 26.6562 18.6451 26.9557C18.2884 27.2518 17.7954 27.3998 17.1652 27.3998H14V26.1692H16.6218C16.9293 26.1692 17.1535 26.1194 17.2931 26.0211C17.4328 25.9194 17.5032 25.7623 17.5032 25.5476C17.5032 25.3499 17.4363 25.195 17.3025 25.0832C17.1629 24.9758 16.9364 24.9227 16.623 24.9227L14.4835 24.9306V23.7011H16.5831C16.9 23.7011 17.1277 23.6536 17.2673 23.5575C17.4011 23.4649 17.468 23.3112 17.468 23.0965C17.468 22.893 17.4011 22.7416 17.2673 22.6399C17.1993 22.5845 17.1089 22.545 16.9974 22.5201C16.88 22.4986 16.7427 22.4873 16.5831 22.4873H14V21.2578H17.0326C17.7344 21.2578 18.2661 21.3934 18.6275 21.6646C18.9843 21.9393 19.1627 22.3653 19.1627 22.9439C19.1627 23.2343 19.0958 23.492 18.962 23.7169C18.8224 23.9418 18.6416 24.1395 18.4186 24.309C18.6639 24.4548 18.8423 24.6289 18.9538 24.8311C19.0982 25.0685 19.1709 25.3634 19.1709 25.7171Z" fill="#4C5BD4"/>
<path d="M25.4959 25.514C25.4959 26.1582 25.253 26.6464 24.7683 26.9786C24.2836 27.3109 23.5853 27.4759 22.6722 27.4759C21.5949 27.4759 20.798 27.2261 20.2816 26.7266C19.7687 26.2305 19.5117 25.4519 19.5117 24.3896C19.5117 23.3171 19.7863 22.5261 20.3368 22.0164C20.879 21.509 21.724 21.2559 22.8729 21.2559H25.165L25.1603 22.4854H22.8401C22.2638 22.4854 21.846 22.5928 21.5867 22.8063C21.4646 22.908 21.3719 23.0369 21.3085 23.1928C21.2369 23.3578 21.2017 23.5465 21.2017 23.7601H23.272C24.0184 23.7601 24.5758 23.9037 24.9443 24.1896C25.3117 24.4789 25.4959 24.9196 25.4959 25.514ZM23.84 25.5796C23.84 25.3818 23.7872 25.2326 23.6815 25.1309C23.5759 25.0383 23.4151 24.9908 23.198 24.9908H21.2099C21.2099 25.4101 21.332 25.7276 21.5773 25.9412C21.8167 26.1604 22.2005 26.2701 22.7274 26.2701C23.1299 26.2701 23.414 26.2135 23.583 26.1017C23.7555 25.9898 23.84 25.8158 23.84 25.5796Z" fill="#4C5BD4"/>
<path d="M31.3106 25.5397C31.3106 26.1398 31.1146 26.6009 30.725 26.9218C30.3318 27.2405 29.7767 27.3987 29.0608 27.3987H25.7031V26.1692H28.7698C29.0714 26.1692 29.285 26.1194 29.407 26.0211C29.5244 25.9251 29.5819 25.7646 29.5819 25.5397C29.5819 25.3092 29.5232 25.143 29.407 25.0425C29.285 24.9464 29.0714 24.899 28.7698 24.899H25.7031V21.2578H30.9984L30.9937 22.4873H27.2722V23.6762H29.346C29.9481 23.6762 30.4292 23.8367 30.7919 24.1576C30.9597 24.3249 31.09 24.5215 31.1815 24.7464C31.2672 24.9758 31.3106 25.2414 31.3106 25.5397Z" fill="#4C5BD4"/>
<path fill-rule="evenodd" clip-rule="evenodd" d="M32.0781 29.3427L34.4218 27.3086L36.9732 28.0217C36.9732 28.0217 38.6562 28.7009 37.7161 29.8377C37.2925 30.24 36.8911 30.6209 35.41 30.2366C34.9898 30.1022 32.0781 29.3427 32.0781 29.3427Z" fill="#4C5BD4"/>
<path fill-rule="evenodd" clip-rule="evenodd" d="M18.5027 27.9051C18.5274 27.9593 18.5485 28.0147 18.5743 28.0689C18.6201 28.165 18.6706 28.2576 18.7257 28.3492C18.8642 28.5775 19.032 28.7888 19.2245 28.9775C19.4663 29.2137 19.7468 29.4126 20.0507 29.5674C20.4345 29.7641 20.8523 29.8918 21.2783 29.9641C21.8405 30.0601 22.4167 30.0635 22.9847 30.0115C23.7523 29.9415 24.5093 29.7731 25.2451 29.555C27.3635 28.9267 29.3199 28.0011 30.977 26.5682C31.0017 26.5467 31.0263 26.5252 31.0521 26.5038C32.1987 25.4991 33.6082 24.0888 33.4345 22.458C33.3242 21.4274 32.025 20.8511 31.1085 20.6409C30.7176 20.5516 30.7916 19.9911 31.193 20.0001C33.0437 20.0431 34.9344 20.5256 35.567 22.0535C35.5705 22.0625 35.574 22.0716 35.5776 22.0817C35.736 22.5733 35.77 23.1056 35.7266 23.6153C35.6444 24.5894 35.2548 25.5172 34.6962 26.3275C33.7632 27.6824 32.4018 28.7278 30.9758 29.5697C29.7729 30.2805 28.5312 30.8331 27.1886 31.2354C26.2427 31.5191 25.2791 31.7519 24.2968 31.8852C23.1972 32.0344 22.0517 32.0672 20.9673 31.8061C19.8759 31.5439 18.91 30.9518 18.2903 30.0353C17.9124 29.477 17.6753 28.8419 17.5333 28.1921C17.4911 28.0011 17.5439 27.7423 17.7176 27.618C17.9394 27.4598 18.2974 27.6011 18.4417 27.7943C18.4664 27.8316 18.4863 27.8678 18.5027 27.9051Z" fill="#4C5BD4"/>
<path fill-rule="evenodd" clip-rule="evenodd" d="M19.2109 27.798C19.2109 27.798 22.4607 30.6289 28.04 27.5957C27.418 28.3031 20.4714 31.5386 19.2109 27.798Z" fill="#4C5BD4"/>
</svg>
