<svg width="15" height="16" viewBox="0 0 15 16" fill="none" xmlns="http://www.w3.org/2000/svg">
<path d="M6.53906 2.375H8.78906C8.78906 2.07663 8.67054 1.79048 8.45956 1.5795C8.24858 1.36853 7.96243 1.25 7.66406 1.25C7.36569 1.25 7.07955 1.36853 6.86857 1.5795C6.65759 1.79048 6.53906 2.07663 6.53906 2.375ZM5.41406 2.375C5.41406 1.77826 5.65112 1.20597 6.07307 0.78401C6.49503 0.362053 7.06733 0.125 7.66406 0.125C8.2608 0.125 8.8331 0.362053 9.25505 0.78401C9.67701 1.20597 9.91406 1.77826 9.91406 2.375H14.4141C14.5632 2.375 14.7063 2.43426 14.8118 2.53975C14.9173 2.64524 14.9766 2.78832 14.9766 2.9375C14.9766 3.08668 14.9173 3.22976 14.8118 3.33525C14.7063 3.44074 14.5632 3.5 14.4141 3.5H13.7796L12.4239 13.4427C12.332 14.1165 11.999 14.7342 11.4867 15.1814C10.9744 15.6286 10.3174 15.875 9.63731 15.875H5.69081C5.01077 15.875 4.35376 15.6286 3.84143 15.1814C3.32909 14.7342 2.99613 14.1165 2.90419 13.4427L1.54856 3.5H0.914062C0.764878 3.5 0.621804 3.44074 0.516315 3.33525C0.410826 3.22976 0.351563 3.08668 0.351562 2.9375C0.351562 2.78832 0.410826 2.64524 0.516315 2.53975C0.621804 2.43426 0.764878 2.375 0.914062 2.375H5.41406ZM6.53906 6.3125C6.53906 6.16332 6.4798 6.02024 6.37431 5.91475C6.26882 5.80926 6.12575 5.75 5.97656 5.75C5.82738 5.75 5.6843 5.80926 5.57881 5.91475C5.47333 6.02024 5.41406 6.16332 5.41406 6.3125V11.9375C5.41406 12.0867 5.47333 12.2298 5.57881 12.3352C5.6843 12.4407 5.82738 12.5 5.97656 12.5C6.12575 12.5 6.26882 12.4407 6.37431 12.3352C6.4798 12.2298 6.53906 12.0867 6.53906 11.9375V6.3125ZM9.35156 5.75C9.20238 5.75 9.0593 5.80926 8.95381 5.91475C8.84833 6.02024 8.78906 6.16332 8.78906 6.3125V11.9375C8.78906 12.0867 8.84833 12.2298 8.95381 12.3352C9.0593 12.4407 9.20238 12.5 9.35156 12.5C9.50075 12.5 9.64382 12.4407 9.74931 12.3352C9.8548 12.2298 9.91406 12.0867 9.91406 11.9375V6.3125C9.91406 6.16332 9.8548 6.02024 9.74931 5.91475C9.64382 5.80926 9.50075 5.75 9.35156 5.75Z" fill="#707070"/>
</svg>
