<svg width="15" height="18" viewBox="0 0 15 18" fill="none" xmlns="http://www.w3.org/2000/svg">
<path d="M12.0555 7.19999V4.49999C12.0555 4.49999 12.0555 -1.06273e-05 7.55547 -1.06273e-05C6.50388 -0.0664194 5.46618 0.26802 4.65126 0.93598C3.83635 1.60394 3.30475 2.55582 3.16347 3.59999H4.96347C5.13447 2.63699 5.75547 1.79999 7.55547 1.79999C10.2555 1.79999 10.2555 3.59999 10.2555 4.94999V7.19999H2.09247C1.63179 7.19999 1.18998 7.38299 0.864224 7.70875C0.538474 8.0345 0.355469 8.47631 0.355469 8.93699V16.272C0.357848 16.7311 0.541902 17.1706 0.867395 17.4944C1.19289 17.8182 1.63334 18 2.09247 18H13.0185C13.4791 18 13.921 17.817 14.2467 17.4912C14.5725 17.1655 14.7555 16.7237 14.7555 16.263V8.93699C14.7555 8.47631 14.5725 8.0345 14.2467 7.70875C13.921 7.38299 13.4791 7.19999 13.0185 7.19999H12.0555ZM7.55547 14.4C7.19946 14.4 6.85145 14.2944 6.55544 14.0966C6.25943 13.8988 6.02872 13.6177 5.89249 13.2888C5.75625 12.9599 5.7206 12.598 5.79006 12.2488C5.85951 11.8997 6.03094 11.5789 6.28268 11.3272C6.53441 11.0755 6.85514 10.904 7.20431 10.8346C7.55347 10.7651 7.91539 10.8008 8.2443 10.937C8.57321 11.0732 8.85433 11.304 9.05211 11.6C9.2499 11.896 9.35547 12.244 9.35547 12.6C9.35547 13.0774 9.16583 13.5352 8.82826 13.8728C8.49069 14.2103 8.03286 14.4 7.55547 14.4Z" fill="#707070"/>
</svg>
