<svg width="80" height="80" viewBox="0 0 80 80" fill="none" xmlns="http://www.w3.org/2000/svg">
<path d="M40.0003 6.66666C21.6337 6.66666 6.66699 21.6333 6.66699 40C6.66699 58.3666 21.6337 73.3333 40.0003 73.3333C58.367 73.3333 73.3336 58.3666 73.3336 40C73.3336 21.6333 58.367 6.66666 40.0003 6.66666ZM55.9337 32.3333L37.0337 51.2333C36.567 51.7 35.9337 51.9666 35.267 51.9666C34.6003 51.9666 33.967 51.7 33.5003 51.2333L24.067 41.8C23.1003 40.8333 23.1003 39.2333 24.067 38.2666C25.0337 37.3 26.6337 37.3 27.6003 38.2666L35.267 45.9333L52.4003 28.8C53.367 27.8333 54.967 27.8333 55.9337 28.8C56.9003 29.7667 56.9003 31.3333 55.9337 32.3333Z" fill="#00CE2D"/>
</svg>
