<svg width="56" height="56" viewBox="0 0 56 56" fill="none" xmlns="http://www.w3.org/2000/svg">
<g clip-path="url(#clip0_734_40444)">
<path d="M28 0C12.5602 0 0 12.5602 0 28C0 43.4398 12.5602 56 28 56C43.4398 56 56 43.4398 56 28C56 12.5602 43.4398 0 28 0Z" fill="#FF7A00"/>
<path d="M29.7 34.4052H25.2919C25.305 33.1969 25.4105 32.1835 25.6081 31.3649C25.8058 30.5334 26.1353 29.7798 26.5965 29.1042C27.0709 28.4285 27.6969 27.7139 28.4744 26.9603C29.0806 26.3887 29.6275 25.8495 30.1151 25.3427C30.6027 24.823 30.9915 24.2773 31.2814 23.7056C31.5713 23.121 31.7163 22.4518 31.7163 21.6983C31.7163 20.8797 31.5779 20.1846 31.3012 19.6129C31.0244 19.0412 30.6159 18.606 30.0756 18.3071C29.5484 18.0083 28.8895 17.8589 28.0988 17.8589C27.4399 17.8589 26.8205 17.9888 26.2407 18.2487C25.6609 18.4955 25.193 18.8853 24.8372 19.418C24.4814 19.9377 24.2903 20.6263 24.264 21.4839H19.5C19.5264 19.8468 19.9217 18.4695 20.686 17.3522C21.4504 16.2348 22.4783 15.3967 23.7698 14.838C25.0612 14.2793 26.5043 14 28.0988 14C29.8647 14 31.3736 14.2988 32.6256 14.8965C33.8775 15.4812 34.8329 16.3387 35.4919 17.4691C36.164 18.5865 36.5 19.9377 36.5 21.5228C36.5 22.6662 36.2694 23.7056 35.8081 24.6411C35.3469 25.5636 34.7473 26.4276 34.0093 27.2332C33.2713 28.0258 32.474 28.8183 31.6174 29.6109C30.8795 30.2735 30.3787 30.9946 30.1151 31.7742C29.8516 32.5408 29.7132 33.4178 29.7 34.4052ZM24.8965 40.4859C24.8965 39.7843 25.1403 39.1931 25.6279 38.7124C26.1155 38.2186 26.781 37.9718 27.6244 37.9718C28.4678 37.9718 29.1333 38.2186 29.6209 38.7124C30.1085 39.1931 30.3523 39.7843 30.3523 40.4859C30.3523 41.1875 30.1085 41.7852 29.6209 42.2789C29.1333 42.7596 28.4678 43 27.6244 43C26.781 43 26.1155 42.7596 25.6279 42.2789C25.1403 41.7852 24.8965 41.1875 24.8965 40.4859Z" fill="white"/>
</g>
<defs>
<clipPath id="clip0_734_40444">
<rect width="56" height="56" fill="white"/>
</clipPath>
</defs>
</svg>
