<svg width="19" height="18" viewBox="0 0 19 18" fill="none" xmlns="http://www.w3.org/2000/svg">
<path d="M9.44531 1.5C5.30531 1.5 1.94531 4.86 1.94531 9C1.94531 13.14 5.30531 16.5 9.44531 16.5C13.5853 16.5 16.9453 13.14 16.9453 9C16.9453 4.86 13.5853 1.5 9.44531 1.5ZM5.39531 8.4225C5.52281 7.53 5.92031 6.7275 6.54281 6.0975C8.04281 4.605 10.4053 4.5225 12.0103 5.8275V5.115C12.0103 4.8075 12.2653 4.5525 12.5728 4.5525C12.8803 4.5525 13.1353 4.8075 13.1353 5.115V7.1175C13.1353 7.425 12.8803 7.68 12.5728 7.68H10.5703C10.2628 7.68 10.0078 7.425 10.0078 7.1175C10.0078 6.81 10.2628 6.555 10.5703 6.555H11.1328C9.97031 5.745 8.36531 5.8575 7.33031 6.8925C6.88031 7.3425 6.59531 7.9275 6.49781 8.58C6.46031 8.8575 6.22031 9.06 5.94281 9.06C5.91281 9.06 5.89031 9.06 5.86031 9.0525C5.56781 9.015 5.35031 8.73 5.39531 8.4225ZM12.3478 11.9025C11.5453 12.705 10.4953 13.1025 9.44531 13.1025C8.53031 13.1025 7.62281 12.78 6.87281 12.1725V12.8775C6.87281 13.185 6.61781 13.44 6.31031 13.44C6.00281 13.44 5.74781 13.185 5.74781 12.8775V10.875C5.74781 10.5675 6.00281 10.3125 6.31031 10.3125H8.31281C8.62031 10.3125 8.87531 10.5675 8.87531 10.875C8.87531 11.1825 8.62031 11.4375 8.31281 11.4375H7.75031C8.91281 12.2475 10.5178 12.135 11.5528 11.1C12.0028 10.65 12.2878 10.065 12.3853 9.4125C12.4303 9.105 12.7078 8.8875 13.0228 8.9325C13.3303 8.9775 13.5403 9.2625 13.5028 9.57C13.3678 10.4775 12.9703 11.28 12.3478 11.9025Z" fill="#707070"/>
</svg>
